<svg width="18" height="18" viewBox="0 0 18 18" fill="none" xmlns="http://www.w3.org/2000/svg">
<path d="M10.0094 18H8.03672C7.69064 18 7.35868 17.8625 7.11396 17.6178C6.86925 17.3731 6.73176 17.0412 6.73176 16.6951V15.4209L6.11775 15.183L5.1889 16.058C4.93928 16.295 4.60822 16.4272 4.26399 16.4272C3.91977 16.4272 3.58871 16.295 3.33908 16.058L1.9497 14.661C1.82705 14.5412 1.72987 14.3979 1.66392 14.2396C1.59797 14.0813 1.56462 13.9113 1.56591 13.7399C1.56548 13.5686 1.59924 13.3988 1.66514 13.2407C1.73103 13.0825 1.82775 12.9391 1.9497 12.8188L2.84782 11.913L2.58677 11.3143H1.30496C1.13359 11.3143 0.963854 11.2805 0.805537 11.215C0.647219 11.1494 0.503372 11.0533 0.382201 10.9321C0.26103 10.8109 0.164993 10.6671 0.0994154 10.5087C0.0338381 10.3504 0 10.1808 0 10.0094V8.03669C0 7.86533 0.0338381 7.69564 0.0994154 7.53732C0.164993 7.379 0.26103 7.23515 0.382201 7.11398C0.503372 6.99281 0.647219 6.89668 0.805537 6.8311C0.963854 6.76553 1.13359 6.73178 1.30496 6.73178H2.58677L2.82477 6.11772L1.9497 5.18892C1.82786 5.06766 1.73121 4.92352 1.66523 4.76478C1.59926 4.60605 1.56525 4.43585 1.56525 4.26396C1.56525 4.09206 1.59926 3.92186 1.66523 3.76313C1.73121 3.6044 1.82786 3.4603 1.9497 3.33905L3.33908 1.94971C3.58781 1.71093 3.91921 1.57758 4.26399 1.57758C4.60878 1.57758 4.94018 1.71093 5.1889 1.94971L6.08702 2.84778L6.69344 2.58678V1.3126C6.69343 0.965804 6.83067 0.633105 7.07517 0.387168C7.31967 0.141231 7.65152 0.00202802 7.9983 0H9.97106C10.3178 0.00202802 10.6497 0.141231 10.8942 0.387168C11.1387 0.633105 11.2759 0.965804 11.2759 1.3126V2.58678L11.89 2.82473L12.8188 1.94971C13.0628 1.7048 13.3941 1.56676 13.7398 1.56591C14.084 1.56718 14.4143 1.70202 14.661 1.94203L16.058 3.34673C16.1806 3.46654 16.2778 3.60987 16.3438 3.76814C16.4097 3.92642 16.4431 4.09634 16.4418 4.2678C16.4409 4.61356 16.3029 4.94485 16.058 5.18892L15.1523 6.09467L15.4209 6.69341H16.695C16.8664 6.69341 17.0361 6.72716 17.1945 6.79273C17.3528 6.85831 17.4966 6.95444 17.6178 7.07561C17.739 7.19678 17.8351 7.34063 17.9007 7.49895C17.9663 7.65727 18 7.82696 18 7.99832V9.97099C18 10.3171 17.8625 10.649 17.6178 10.8937C17.3731 11.1384 17.0411 11.2759 16.695 11.2759H15.4209L15.1829 11.89L16.058 12.8188C16.1799 12.9391 16.2766 13.0825 16.3425 13.2407C16.4084 13.3988 16.4422 13.5686 16.4418 13.7399C16.4424 13.9124 16.4088 14.0833 16.3429 14.2427C16.277 14.4021 16.1802 14.5469 16.058 14.6687L14.661 16.058C14.4127 16.2945 14.0828 16.4264 13.7398 16.4264C13.3969 16.4264 13.0671 16.2945 12.8188 16.058L11.913 15.1522L11.3143 15.4132V16.6874C11.3143 17.0335 11.1769 17.3654 10.9321 17.6101C10.6874 17.8548 10.3555 17.9923 10.0094 17.9923V18ZM8.26694 16.4648H9.80212V15.4209C9.81091 15.1053 9.91444 14.7996 10.0992 14.5436C10.284 14.2877 10.5416 14.0932 10.8383 13.9855L11.3603 13.7629C11.551 13.6779 11.7581 13.636 11.9668 13.6401C12.3726 13.6336 12.7645 13.7882 13.0567 14.0699L13.8243 14.8375L14.8912 13.7629L14.1236 12.9953C13.9068 12.7654 13.764 12.4758 13.7133 12.1638C13.6627 11.8519 13.7067 11.5319 13.8396 11.2452L14.0546 10.7156C14.1654 10.4283 14.3602 10.181 14.6134 10.0058C14.8666 9.83054 15.1667 9.73549 15.4746 9.73304H16.5185V8.19786H15.4746C15.1576 8.19446 14.8495 8.09302 14.5925 7.90748C14.3355 7.72194 14.1422 7.46141 14.0392 7.16163L13.8166 6.63199C13.6921 6.35099 13.6548 6.03908 13.7096 5.73664C13.7643 5.4342 13.9085 5.15513 14.1236 4.9356L14.8912 4.16801L13.8243 3.09341L13.0567 3.861C12.8264 4.07444 12.5382 4.21522 12.2283 4.26574C11.9184 4.31625 11.6005 4.27426 11.3143 4.14501L10.7847 3.93006C10.4973 3.81921 10.25 3.62452 10.0748 3.37128C9.89957 3.11804 9.80457 2.81797 9.80212 2.51004V1.45844H8.26694V2.51004C8.25815 2.82564 8.15462 3.13131 7.96982 3.3873C7.78502 3.64329 7.52751 3.83774 7.23071 3.94542L6.70112 4.16801C6.50942 4.24968 6.30307 4.29149 6.0947 4.29085C5.68883 4.2973 5.2969 4.14275 5.00469 3.861L4.2371 3.09341L3.16246 4.16801L3.93005 4.9356C4.15131 5.163 4.29668 5.45337 4.34617 5.76677C4.39565 6.08016 4.3469 6.40122 4.20646 6.68573L3.9992 7.20768C3.88957 7.49642 3.6954 7.7454 3.44206 7.92205C3.18872 8.09871 2.88801 8.19481 2.57918 8.19786H1.52759V9.73304H2.57918C2.89478 9.74183 3.20041 9.84536 3.4564 10.0302C3.71238 10.215 3.90688 10.4725 4.01456 10.7693L4.2371 11.299C4.36162 11.58 4.39894 11.8919 4.3442 12.1943C4.28946 12.4967 4.14516 12.7758 3.93005 12.9953L3.16246 13.7629L4.2371 14.8375L5.00469 14.0699C5.23568 13.8549 5.52526 13.7132 5.83674 13.6627C6.14823 13.6121 6.46769 13.655 6.75481 13.7859L7.27681 14.0008C7.56555 14.1105 7.81443 14.3046 7.99109 14.558C8.16774 14.8113 8.26389 15.1121 8.26694 15.4209V16.4648V16.4648ZM9.03453 12.3505C8.36806 12.3505 7.71655 12.1529 7.16241 11.7826C6.60826 11.4124 6.1764 10.8861 5.92135 10.2704C5.66631 9.65462 5.59953 8.97708 5.72955 8.32342C5.85957 7.66975 6.18057 7.06934 6.65184 6.59807C7.1231 6.12681 7.72347 5.80585 8.37713 5.67583C9.03079 5.54581 9.70838 5.61254 10.3241 5.86759C10.9399 6.12263 11.4661 6.55454 11.8363 7.10869C12.2066 7.66284 12.4043 8.31435 12.4043 8.98081C12.4043 9.87452 12.0493 10.7316 11.4173 11.3636C10.7854 11.9955 9.92823 12.3505 9.03453 12.3505V12.3505ZM9.03453 7.15395C8.67136 7.15395 8.31636 7.26175 8.01451 7.46367C7.71266 7.6656 7.47756 7.95257 7.33894 8.28823C7.20031 8.6239 7.16446 8.99317 7.23587 9.34924C7.30728 9.70532 7.48273 10.0322 7.74007 10.2884C7.9974 10.5447 8.325 10.7188 8.68137 10.7887C9.03774 10.8586 9.40688 10.8212 9.74196 10.6812C10.077 10.5412 10.363 10.3048 10.5636 10.0021C10.7643 9.6994 10.8706 9.34398 10.8691 8.98081C10.867 8.4956 10.6729 8.03094 10.3291 7.68855C9.98526 7.34617 9.51975 7.15394 9.03453 7.15395V7.15395Z" fill="white"/>
</svg>
